<svg xmlns="http://www.w3.org/2000/svg" viewBox="0 0 64 64" role="img" aria-labelledby="title">
  <title id="title">USDC</title>
  <circle cx="32" cy="32" r="32" fill="#2775CA"/>
  <path fill="#fff" d="M35.4 47.1v4.4h-6.2v-4.3c-6.2-.9-9.3-4.4-10.1-9.1l5.3-1.3c.7 3.4 2.7 5.4 7.9 5.4 3.8 0 6.3-1.4 6.3-4.2 0-2.4-1.5-3.5-5.8-4.2l-3.6-.6c-6.2-1-9.2-4-9.2-8.8 0-4.7 3.4-8 9.2-8.8v-4.3h6.2v4.3c5.1.8 8.2 3.5 9.3 7.9l-5.2 1.5c-.9-3-3-4.5-7.2-4.5-4.1 0-6.2 1.5-6.2 3.8 0 2.1 1.4 3.3 5.3 3.9l3.8.6c6.6 1.1 9.6 4 9.6 9.1 0 5.1-3.6 8.3-9.4 9.2Z"/>
  <path fill="#fff" d="M15.2 50.2A25 25 0 0 1 15.2 13.8l3.6 3.6a19.9 19.9 0 0 0 0 29.2l-3.6 3.6Zm33.6 0-3.6-3.6a19.9 19.9 0 0 0 0-29.2l3.6-3.6a25 25 0 0 1 0 36.4Z"/>
</svg>
